<svg width="153" height="153" viewBox="0 0 153 153" fill="none" xmlns="http://www.w3.org/2000/svg">
<path d="M126.702 27.1621H26.2441V125.049H126.702V27.1621Z" fill="white"/>
<path d="M31.8976 143.434C31.4437 140.304 18.7394 127.14 15.8049 111.217C15.1185 107.492 14.8584 99.5305 15.0737 70.7166C15.3702 31.0205 15.6043 46.9945 17.1575 43C21.5341 31.7442 31.6173 33.3002 27.5 29.5027C32.169 27.8735 36.6006 16.5003 77.3523 16.5028C118.087 16.5053 103.927 30.3934 108 32C119.317 36.4631 104.208 27.6316 108 38.5C109.634 43.184 142.352 31.343 142.352 74.4972C142.352 117.651 142.188 112.469 140.553 117.153C136.755 128.037 127.103 137.82 115.852 142.19C111.85 143.745 106.598 143.96 79.3523 144.137C55.7023 144.246 34.3477 143.93 31.8976 143.434ZM67.3418 103.514C67.6759 102.974 67.6525 100.949 67.2896 99.0143C66.7293 96.0273 66.2247 95.4973 63.9412 95.4973C59.3453 95.4973 58.8524 94.0735 58.8524 80.7972V68.4973H63.3525H67.8524V64.4973V60.4973H63.3525H58.8524V54.9972V49.4973H53.3524H47.8524V54.9972C47.8524 60.4417 47.8222 60.4973 44.8525 60.4973C42.0191 60.4973 41.8524 60.7195 41.8524 64.4973C41.8524 68.275 42.0191 68.4973 44.8525 68.4973H47.8524V82.0469C47.8524 96.9876 48.7667 100.301 53.615 102.932C56.701 104.606 66.4122 105.018 67.3418 103.514ZM102.582 102.533C112.1 98.2124 113.682 86.5839 105.431 81.582C103.738 80.5557 98.9894 78.9635 94.8792 78.0439C86.6809 76.2096 84.8523 75.1821 84.8523 72.41C84.8523 70.0279 88.1499 68.2973 92.689 68.2973C95.316 68.2973 96.883 68.9941 98.5103 70.8861C100.495 73.193 101.233 73.4068 105.295 72.8501C110.341 72.1584 110.723 71.3377 107.954 67.1385C103.789 60.8204 95.7007 58.3178 86.2685 60.4286C76.4528 62.6253 71.5668 70.4812 75.2337 78.1707C77.106 82.097 81.904 84.6073 91.1017 86.4728C96.5444 87.5766 99.8523 89.503 99.8523 91.5688C99.8523 92.0794 98.8997 93.4499 97.7355 94.6142C94.0361 98.3136 85.2699 96.25 83.6168 91.2907C83.1808 89.9828 72.8515 91.5047 72.8561 92.8761C72.8581 93.4928 73.7674 95.4859 74.8767 97.3054C77.6744 101.894 83.7521 104.453 91.8523 104.453C96.1267 104.453 99.8005 103.796 102.582 102.533Z" fill="#3B82F6"/>
<path fill-rule="evenodd" clip-rule="evenodd" d="M31 0C13.8792 0 0 13.8792 0 31V122C0 139.121 13.8792 153 31 153H122C139.121 153 153 139.121 153 122V31C153 13.8792 139.121 0 122 0H31ZM115 44H34V111H115V44Z" fill="#3B82F6"/>
<circle cx="25.5" cy="27.5" r="7.5" fill="white"/>
</svg>
